<svg width="40" height="40" fill="none" xmlns="http://www.w3.org/2000/svg"><g id="Frame" clip-path="url('#clip0_46_1056')"><g id="Page-1"><g id="-"><g id="ic/01_check"><path id="Oval" d="M20 40c11.046 0 20-8.954 20-20S31.046 0 20 0 0 8.954 0 20s8.954 20 20 20Z" fill="#5F0080"/><path id="Rectangle" d="M27.8 9.6H12.2a1 1 0 0 0-1 1v18.8a1 1 0 0 0 1 1h15.6a1 1 0 0 0 1-1V10.6a1 1 0 0 0-1-1Z" stroke="#fff"/><g id="Group-2" stroke="#fff" stroke-linecap="round"><path id="Path-2" d="M14.4 14.53 15.63 16l1.97-2.4" stroke-linejoin="round"/><path id="Line" d="M20 14.8h5.6"/></g><g id="Group" stroke="#fff" stroke-linecap="round"><path id="Path-2_2" d="m14.4 19.73 1.23 1.47 1.97-2.4" stroke-linejoin="round"/><path id="Line_2" d="M20 20h5.6"/></g><g id="Group-4" stroke="#fff" stroke-linecap="round"><path id="Path-2_3" d="m14.4 24.93 1.23 1.47L17.6 24" stroke-linejoin="round"/><path id="Line_3" d="M20 25.2h5.6"/></g></g></g></g></g><defs><clipPath id="clip0_46_1056"><path fill="#fff" d="M0 0h40v40H0z"/></clipPath></defs></svg>