<svg width="40" height="40" fill="none" xmlns="http://www.w3.org/2000/svg"><g id="Frame" clip-path="url('#clip0_46_1215')"><g id="Page-1"><g id="-"><g id="ic/03_cold"><path id="Oval" d="M20 40c11.046 0 20-8.954 20-20S31.046 0 20 0 0 8.954 0 20s8.954 20 20 20Z" fill="#5F0080"/><path id="Rectangle" fill-rule="evenodd" clip-rule="evenodd" d="M8 12h16a.8.8 0 0 1 .8.8v12.8H8a.8.8 0 0 1-.8-.8v-12A.8.8 0 0 1 8 12Z" stroke="#fff" stroke-linejoin="round"/><path id="Rectangle_2" fill-rule="evenodd" clip-rule="evenodd" d="M24.8 18.4h9.6v6.4a.8.8 0 0 1-.8.8h-8.8v-7.2Z" stroke="#fff" stroke-linejoin="round"/><path id="Rectangle_3" fill-rule="evenodd" clip-rule="evenodd" d="M24.8 15.2h6.602a.8.8 0 0 1 .62.293L34.4 18.4h-9.6v-3.2Z" stroke="#fff" stroke-linejoin="round"/><path id="Oval_2" d="M12 28.8a2.4 2.4 0 1 0 0-4.8 2.4 2.4 0 0 0 0 4.8Z" fill="#5F0080" stroke="#fff"/><path id="Oval_3" d="M29.6 28.8a2.4 2.4 0 1 0 0-4.8 2.4 2.4 0 0 0 0 4.8Z" fill="#5F0080" stroke="#fff"/></g></g></g></g><defs><clipPath id="clip0_46_1215"><path fill="#fff" d="M0 0h40v40H0z"/></clipPath></defs></svg>