<svg width="41" height="40" fill="none" xmlns="http://www.w3.org/2000/svg"><g id="Frame" clip-path="url('#clip0_46_1225')"><g id="Page-1"><g id="-"><g id="ic/04_price"><path id="Oval" d="M20.5 40c11.046 0 20-8.954 20-20s-8.954-20-20-20S.5 8.954.5 20s8.954 20 20 20Z" fill="#5F0080"/><path id="Oval_2" d="M19.7 28.8c5.744 0 10.4-4.656 10.4-10.4C30.1 12.656 25.444 8 19.7 8 13.956 8 9.3 12.656 9.3 18.4c0 5.744 4.656 10.4 10.4 10.4Z" fill="#5F0080" stroke="#fff"/><g id="Group-5"><path id="Path-3" d="m14.9 15.2 2.4 7.2 2.4-7.2 2.4 7.2 2.4-7.2" stroke="#fff" stroke-linecap="round" stroke-linejoin="round"/><path id="Rectangle" d="M15.2 17.6h-1.4a.5.5 0 1 0 0 1h1.4a.5.5 0 0 0 0-1Z" fill="#fff"/><path id="Rectangle_2" d="M25.6 17.6h-1.4a.5.5 0 1 0 0 1h1.4a.5.5 0 0 0 0-1Z" fill="#fff"/></g><path id="Rectangle_3" d="m26.997 25.366 4.628 4.628c.256.256.337.59.18.746l-.565.565c-.156.157-.49.076-.746-.18l-4.628-4.628" stroke="#fff" stroke-linejoin="round"/></g></g></g></g><defs><clipPath id="clip0_46_1225"><path fill="#fff" transform="translate(.5)" d="M0 0h40v40H0z"/></clipPath></defs></svg>