<svg width="14" height="20" fill="none" xmlns="http://www.w3.org/2000/svg"><path clip-rule="evenodd" d="M6.993 3.7a6.29 6.29 0 0 1 4.46 1.846A6.277 6.277 0 0 1 13.3 10c0 1.74-.706 3.315-1.847 4.455a6.29 6.29 0 0 1-4.46 1.845 6.27 6.27 0 0 1-4.45-1.845A6.284 6.284 0 0 1 .7 10c0-1.74.705-3.315 1.844-4.455A6.27 6.27 0 0 1 6.994 3.7Z" stroke="#CCC" stroke-width="1.4"/><path d="M4.5 8.21h1.27c.044-.659.492-1.08 1.19-1.08.68 0 1.135.405 1.135.967 0 .49-.191.772-.74 1.128l-.158.1c-.746.437-1.06.924-1.01 1.735l.005.367h1.254v-.308c0-.535.2-.81.908-1.227C9.09 9.454 9.5 8.876 9.5 8.049 9.5 6.854 8.51 6 7.03 6c-1.606 0-2.487.93-2.53 2.21Zm2.378 5.795c-.54 0-.897-.34-.897-.86 0-.523.357-.864.897-.864.552 0 .898.34.898.865 0 .519-.346.86-.898.86Z" fill="#CCC"/></svg>