<svg width="41" height="40" fill="none" xmlns="http://www.w3.org/2000/svg"><g id="Frame" clip-path="url('#clip0_46_1249')"><g id="Page-1"><g id="-"><g id="ic/05_eco"><path id="Oval" d="M20.5 40c11.046 0 20-8.954 20-20s-8.954-20-20-20S.5 8.954.5 20s8.954 20 20 20Z" fill="#5F0080"/><path id="Oval_2" d="M20.5 22.4a2.4 2.4 0 1 0 0-4.8 2.4 2.4 0 0 0 0 4.8Z" stroke="#fff"/><g id="Group-13" stroke="#fff" stroke-linecap="round" stroke-linejoin="round"><path id="Stroke-1" d="m14.167 16.495 4.296-7.44c1.12-1.94 2.953-1.94 4.072 0l2.986 5.17"/><path id="Stroke-3" d="M25.601 11.128v3.236l-1.4-.81-1.401-.808"/><path id="Stroke-5" d="M20.005 28.319h-8.59c-2.24 0-3.158-1.588-2.038-3.528l2.986-5.17"/><path id="Stroke-7" d="m9.64 21.1 1.401-.809 1.401-.809v3.236"/><path id="Stroke-9" d="m27.326 17.353 4.296 7.441c1.12 1.94.204 3.526-2.037 3.526h-5.97"/><path id="Stroke-11" d="m26.257 29.939-1.401-.809-1.4-.809 1.4-.809 1.4-.808"/></g></g></g></g></g><defs><clipPath id="clip0_46_1249"><path fill="#fff" transform="translate(.5)" d="M0 0h40v40H0z"/></clipPath></defs></svg>