<svg width="40" height="40" fill="none" xmlns="http://www.w3.org/2000/svg"><g id="Frame" clip-path="url('#clip0_46_1203')"><g id="Page-1"><g id="-"><g id="ic/02_only"><g id="ic/kurlyonly"><path id="Oval" d="M20 40c11.046 0 20-8.954 20-20S31.046 0 20 0 0 8.954 0 20s8.954 20 20 20Z" fill="#5F0080"/></g><path id="Rectangle" d="M29.4 11.2H10.6a1 1 0 0 0-1 1v1.2a1 1 0 0 0 1 1h18.8a1 1 0 0 0 1-1v-1.2a1 1 0 0 0-1-1Z" stroke="#fff" stroke-linejoin="round"/><path id="Rectangle_2" fill-rule="evenodd" clip-rule="evenodd" d="M10.4 14.4h19.2V28a.8.8 0 0 1-.8.8H11.2a.8.8 0 0 1-.8-.8V14.4Z" stroke="#fff" stroke-linejoin="round"/><g id="Group-6" stroke="#fff" stroke-linecap="round"><path id="Path-4" d="M18 18.4v6"/><path id="Path-4_2" d="m19.3 21.04 3 3.2"/><path id="Path-4_3" d="m22 18.64-4 3.111"/></g></g></g></g></g><defs><clipPath id="clip0_46_1203"><path fill="#fff" d="M0 0h40v40H0z"/></clipPath></defs></svg>